<svg xmlns="http://www.w3.org/2000/svg" width="171.626" height="47.742" viewBox="0 0 171.626 47.742">
  <g id="Gruppe_1" data-name="Gruppe 1" transform="translate(-364.484 -251.389)">
    <path id="Pfad_1" data-name="Pfad 1" d="M390.631,269.3H394.8a5.425,5.425,0,0,0,3.416-.866,3.316,3.316,0,0,0,1.072-2.744,3.6,3.6,0,0,0-.278-1.413,2.843,2.843,0,0,0-.891-1.135,4.547,4.547,0,0,0-1.561-.744,8.464,8.464,0,0,0-2.269-.269h-3.657Zm0-8.486h3.828a7.821,7.821,0,0,0,1.525-.147,3.8,3.8,0,0,0,1.317-.512,2.746,2.746,0,0,0,.927-1,3.273,3.273,0,0,0,.353-1.61,3.629,3.629,0,0,0-.3-1.6,2.357,2.357,0,0,0-.9-.987,4,4,0,0,0-1.488-.5,14.247,14.247,0,0,0-2.085-.133h-3.17Zm-1.61-7.8h4.927a8.33,8.33,0,0,1,4.754,1.06,3.841,3.841,0,0,1,1.488,3.355,4.1,4.1,0,0,1-.585,2.316,4.472,4.472,0,0,1-1.9,1.488,5.769,5.769,0,0,1,2.328,1.755,4.455,4.455,0,0,1,.866,2.805,5.344,5.344,0,0,1-.437,2.293,3.651,3.651,0,0,1-1.268,1.488,5.586,5.586,0,0,1-1.989.8,12.606,12.606,0,0,1-2.574.243h-5.608Z" transform="translate(32.87 2.167)"/>
    <path id="Pfad_2" data-name="Pfad 2" d="M405.722,258.316a6.965,6.965,0,0,0-1.621-3.025,3.6,3.6,0,0,0-2.672-1.072,4.121,4.121,0,0,0-2.255.6,4.826,4.826,0,0,0-1.561,1.647,7.994,7.994,0,0,0-.915,2.464,15.784,15.784,0,0,0,0,6.048,7.758,7.758,0,0,0,.927,2.461,4.774,4.774,0,0,0,1.621,1.647,4.471,4.471,0,0,0,2.354.6,4.135,4.135,0,0,0,1.792-.353,3.8,3.8,0,0,0,1.256-.938,5.01,5.01,0,0,0,.842-1.366,11.746,11.746,0,0,0,.55-1.633l1.511.269a10.3,10.3,0,0,1-.695,2.157,5.777,5.777,0,0,1-1.158,1.694,4.911,4.911,0,0,1-1.72,1.1,6.694,6.694,0,0,1-2.4.388,6.177,6.177,0,0,1-2.866-.646,5.96,5.96,0,0,1-2.122-1.841,8.873,8.873,0,0,1-1.329-2.852,15.065,15.065,0,0,1,0-7.414,8.885,8.885,0,0,1,1.329-2.854,5.96,5.96,0,0,1,2.122-1.841,6.178,6.178,0,0,1,2.866-.646,5.366,5.366,0,0,1,2.1.388,5.2,5.2,0,0,1,1.624,1.074,5.96,5.96,0,0,1,1.158,1.621A11.329,11.329,0,0,1,407.21,258Z" transform="translate(40.606 2.027)"/>
    <path id="Pfad_3" data-name="Pfad 3" d="M412.307,258.267a7.477,7.477,0,0,0-.562-1.572,4.651,4.651,0,0,0-.927-1.294,4.194,4.194,0,0,0-1.317-.866,4.453,4.453,0,0,0-1.731-.316,4.167,4.167,0,0,0-2.108.536,4.809,4.809,0,0,0-1.612,1.549,7.957,7.957,0,0,0-1.034,2.438,12.856,12.856,0,0,0-.367,3.208,16.318,16.318,0,0,0,.243,2.805,7.546,7.546,0,0,0,.88,2.487,4.942,4.942,0,0,0,1.72,1.769,5.24,5.24,0,0,0,2.791.669,4.258,4.258,0,0,0,1.7-.328,3.761,3.761,0,0,0,1.3-.915,4.219,4.219,0,0,0,.831-1.355,4.59,4.59,0,0,0,.292-1.645v-1.61h-4.438v-1.317h6.048v8.242h-1.39v-1.731h-.049a4.711,4.711,0,0,1-1.867,1.5A7.357,7.357,0,0,1,407.8,271a6.174,6.174,0,0,1-2.707-.6,6.041,6.041,0,0,1-2.148-1.743,8.372,8.372,0,0,1-1.4-2.831,13.588,13.588,0,0,1-.5-3.877,12.753,12.753,0,0,1,.538-3.877,8.578,8.578,0,0,1,1.462-2.831,6.259,6.259,0,0,1,2.171-1.743,6.063,6.063,0,0,1,2.658-.6,6.28,6.28,0,0,1,2.22.377,5.617,5.617,0,0,1,1.755,1.05,5.749,5.749,0,0,1,1.256,1.61,7.347,7.347,0,0,1,.718,2.059Z" transform="translate(48.969 2.027)"/>
    <path id="Pfad_4" data-name="Pfad 4" d="M392.722,270.931H394.7a2.721,2.721,0,1,0,0-5.442h-1.975Zm-3.68,10.776v-19.26h5.309a7.377,7.377,0,0,1,5.082,1.509,6.266,6.266,0,0,1,0,8.509,7.389,7.389,0,0,1-5.082,1.507h-1.628v7.735Z" transform="translate(32.898 14.814)"/>
    <path id="Pfad_5" data-name="Pfad 5" d="M395.175,281.707v-19.26h3.68v16.005h5.922v3.254Z" transform="translate(41.115 14.814)"/>
    <path id="Pfad_6" data-name="Pfad 6" d="M405.39,274.4h3.654l-1.787-7.789H407.2Zm-5.255,7.309,4.775-19.26h4.721l4.642,19.26h-3.521l-.934-4.054h-5.1l-1.041,4.054Z" transform="translate(47.758 14.814)"/>
    <path id="Pfad_7" data-name="Pfad 7" d="M418.258,262.448V265.7h-4.3v16.005h-3.68V265.7h-4.293v-3.254Z" transform="translate(55.6 14.815)"/>
    <rect id="Rechteck_1" data-name="Rechteck 1" width="3.68" height="19.26" transform="translate(477.183 277.262)"/>
    <path id="Pfad_8" data-name="Pfad 8" d="M415.885,281.707v-19.26h4.027l5.124,11.417h.052V262.447h3.362v19.26h-3.521l-5.629-12.43h-.054v12.43Z" transform="translate(68.857 14.814)"/>
    <rect id="Rechteck_2" data-name="Rechteck 2" width="3.68" height="19.26" transform="translate(501.185 277.262)"/>
    <path id="Pfad_9" data-name="Pfad 9" d="M429.6,276.149a2.823,2.823,0,0,0,.641,2.162,3.051,3.051,0,0,0,3.521,0,2.823,2.823,0,0,0,.641-2.162v-7.84a2.83,2.83,0,0,0-.641-2.162,3.051,3.051,0,0,0-3.521,0,2.83,2.83,0,0,0-.641,2.162Zm-3.68-7.361a8.694,8.694,0,0,1,.454-3.013,5.15,5.15,0,0,1,1.254-1.989,4.825,4.825,0,0,1,1.919-1.107,8.872,8.872,0,0,1,4.908,0,4.817,4.817,0,0,1,1.921,1.107,5.15,5.15,0,0,1,1.254,1.989,8.751,8.751,0,0,1,.454,3.013v6.881a8.765,8.765,0,0,1-.454,3.016,5.141,5.141,0,0,1-1.254,1.986,4.789,4.789,0,0,1-1.921,1.107,8.813,8.813,0,0,1-4.908,0,4.8,4.8,0,0,1-1.919-1.107,5.14,5.14,0,0,1-1.254-1.986,8.708,8.708,0,0,1-.454-3.016Z" transform="translate(82.294 14.663)"/>
    <path id="Pfad_10" data-name="Pfad 10" d="M441.673,262.448v11.415h-.054L436.5,262.448h-4.027v19.257h3.36V269.277h.054l5.629,12.428h3.519V262.448Z" transform="translate(91.077 14.815)"/>
    <path id="Pfad_11" data-name="Pfad 11" d="M378.4,288.281l8.3-23.682-11.983-5.112Z" transform="translate(13.715 10.849)" fill="#707070"/>
    <path id="Pfad_12" data-name="Pfad 12" d="M392.12,293.7l-3.683-28.794-23.953-9.464Z" transform="translate(0 5.43)"/>
    <path id="Pfad_13" data-name="Pfad 13" d="M384.6,270.018,376.3,293.7l22.945-38.258Z" transform="translate(15.823 5.43)" fill="#d1d4d4"/>
    <path id="Pfad_14" data-name="Pfad 14" d="M374.722,264.9l26.627-9.461L386.7,270.016Z" transform="translate(13.715 5.431)" fill="#fff"/>
    <path id="Pfad_15" data-name="Pfad 15" d="M391.122,251.389l-26.637,9.485,23.951,9.461,26.63-9.461-23.932-9.485Z" transform="translate(0.001)" fill="#0acc8f"/>
    <path id="Pfad_16" data-name="Pfad 16" d="M364.485,255.442l23.953,9.464,26.627-9.464Z" transform="translate(0.001 5.43)" fill="#8ad9bd"/>
  </g>
</svg>
